<svg xmlns="http://www.w3.org/2000/svg" width="1440" height="900" viewBox="0 0 1440 900">
  <style>.sans{font-family:Arial,sans-serif}.nav{font:700 16px Arial;fill:#6b7772}.dark{fill:#213936}.coral{fill:#f47f70}</style>
  <rect width="1440" height="900" fill="#f7f8f4"/><rect width="1440" height="104" fill="#f7f8f4" stroke="#d5ded9"/>
  <rect x="28" y="22" width="58" height="58" rx="18" fill="#f7f8f4" stroke="#c8d4cd"/><image href="../../../shared/safespace-logo.jpeg" x="30" y="24" width="54" height="54" preserveAspectRatio="xMidYMid meet"/>
  <text x="102" y="54" class="sans dark" font-size="25" font-weight="800">SafeSpace</text><text x="102" y="75" class="sans" font-size="11" letter-spacing="2" fill="#708078">BIENESTAR LABORAL</text><text x="586" y="61" class="nav dark">Inicio</text><rect x="586" y="82" width="42" height="3" class="coral"/><text x="662" y="61" class="nav">Producto</text><text x="760" y="61" class="nav">Para empleados y Recursos Humanos</text><text x="1018" y="61" class="nav">Planes</text><text x="1087" y="61" class="nav">Contacto</text><text x="1183" y="61" class="nav">Conócenos</text><rect x="1300" y="25" width="100" height="48" rx="2" fill="#213936"/><text x="1350" y="56" text-anchor="middle" class="sans" font-size="15" font-weight="700" fill="#fff">Empieza</text><rect x="1415" y="25" width="25" height="48" fill="#f7f8f4" stroke="#bdc9c2"/><text x="1428" y="55" text-anchor="middle" class="sans" font-size="11" fill="#213936">ES</text>
  <svg x="0" y="104" width="1440" height="480" viewBox="0 104 1881 480" preserveAspectRatio="xMidYMid slice"><image href="../../../cap5/landing/landing-desktop.png" width="1881" height="910"/></svg>
  <rect y="584" width="1440" height="316" fill="#f7f8f4"/><text x="112" y="658" class="sans coral" font-size="13" font-weight="700" letter-spacing="2">○  EL PRODUCTO</text><text x="112" y="728" class="sans dark" font-size="58" font-weight="800">Un ecosistema para escuchar,</text><text x="112" y="792" class="sans dark" font-size="58" font-weight="800">acompañar y actuar.</text><path d="M1212 612 1388 788" fill="none" stroke="#dbe7df" stroke-width="2"/>
</svg>
